<svg width="10" height="80" viewBox="0 0 10 80" fill="none" xmlns="http://www.w3.org/2000/svg">
<path d="M9.65 74.4809C9.65 75.9912 9.18552 77.2677 8.25655 78.3105C7.32762 79.3534 6.19045 79.8748 4.84505 79.8748C3.49968 79.8748 2.35583 79.3534 1.4135 78.3105C0.471166 77.2677 0 75.9912 0 74.4809C0 73.354 0.283333 72.3419 0.85 71.4445C1.41667 70.5471 2.13333 69.8925 3 69.4804L3 34.1959H6.65L6.65 69.4804C7.55 69.9029 8.275 70.5602 8.825 71.4523C9.375 72.3445 9.65 73.354 9.65 74.4809Z" fill="black"/>
<path d="M9.65 5.93465C9.65 7.06158 9.375 8.07112 8.825 8.96327C8.275 9.85539 7.55 10.5127 6.65 10.9352L6.65 46.1635H3L3 10.9352C2.13333 10.5231 1.41667 9.86844 0.85 8.97108C0.283333 8.07373 0 7.06158 0 5.93465C0 4.40865 0.469516 3.11881 1.40855 2.06514C2.34758 1.01148 3.49708 0.484646 4.85705 0.484646C6.20302 0.484646 7.33833 1.01148 8.263 2.06514C9.18767 3.11881 9.65 4.40865 9.65 5.93465Z" fill="black"/>
</svg>
