<svg width="48" height="35" viewBox="0 0 48 35" fill="none" xmlns="http://www.w3.org/2000/svg">
<path d="M27.2727 20.7273C25.4545 20.7273 23.9091 20.0909 22.6364 18.8182C21.3636 17.5455 20.7273 16 20.7273 14.1818C20.7273 12.3636 21.3636 10.8182 22.6364 9.54546C23.9091 8.27273 25.4545 7.63636 27.2727 7.63636C29.0909 7.63636 30.6364 8.27273 31.9091 9.54546C33.1818 10.8182 33.8182 12.3636 33.8182 14.1818C33.8182 16 33.1818 17.5455 31.9091 18.8182C30.6364 20.0909 29.0909 20.7273 27.2727 20.7273ZM9.81818 28.3636C8.91818 28.3636 8.14773 28.0432 7.50682 27.4023C6.86591 26.7614 6.54545 25.9909 6.54545 25.0909V3.27273C6.54545 2.37273 6.86591 1.60227 7.50682 0.961364C8.14773 0.320455 8.91818 0 9.81818 0H44.7273C45.6273 0 46.3977 0.320455 47.0386 0.961364C47.6795 1.60227 48 2.37273 48 3.27273V25.0909C48 25.9909 47.6795 26.7614 47.0386 27.4023C46.3977 28.0432 45.6273 28.3636 44.7273 28.3636H9.81818ZM15.2727 25.0909H39.2727C39.2727 23.5636 39.8 22.2727 40.8545 21.2182C41.9091 20.1636 43.2 19.6364 44.7273 19.6364V8.72727C43.2 8.72727 41.9091 8.2 40.8545 7.14545C39.8 6.09091 39.2727 4.8 39.2727 3.27273H15.2727C15.2727 4.8 14.7455 6.09091 13.6909 7.14545C12.6364 8.2 11.3455 8.72727 9.81818 8.72727V19.6364C11.3455 19.6364 12.6364 20.1636 13.6909 21.2182C14.7455 22.2727 15.2727 23.5636 15.2727 25.0909ZM41.4545 34.9091H3.27273C2.37273 34.9091 1.60227 34.5886 0.961364 33.9477C0.320455 33.3068 0 32.5364 0 31.6364V6.54545H3.27273V31.6364H41.4545V34.9091Z" fill="#00A575"/>
</svg>
