<svg width="48" height="48" viewBox="0 0 48 48" fill="none" xmlns="http://www.w3.org/2000/svg">
<path d="M24 44C21.2667 44 18.6833 43.475 16.25 42.425C13.8167 41.375 11.6917 39.9417 9.875 38.125C8.05833 36.3083 6.625 34.1833 5.575 31.75C4.525 29.3167 4 26.7333 4 24C4 21.2333 4.525 18.6333 5.575 16.2C6.625 13.7667 8.05833 11.65 9.875 9.85C11.6917 8.05 13.8167 6.625 16.25 5.575C18.6833 4.525 21.2667 4 24 4C26.7667 4 29.3667 4.525 31.8 5.575C34.2333 6.625 36.35 8.05 38.15 9.85C39.95 11.65 41.375 13.7667 42.425 16.2C43.475 18.6333 44 21.2333 44 24C44 24.9667 43.9333 25.9333 43.8 26.9C43.6667 27.8667 43.4667 28.8 43.2 29.7C42.8333 29.3333 42.425 29.0167 41.975 28.75C41.525 28.4833 41.0333 28.2833 40.5 28.15C40.6667 27.4833 40.7917 26.8083 40.875 26.125C40.9583 25.4417 41 24.7333 41 24C41 19.2667 39.35 15.25 36.05 11.95C32.75 8.65 28.7333 7 24 7C19.3 7 15.2917 8.65 11.975 11.95C8.65833 15.25 7 19.2667 7 24C7 28.7 8.65833 32.7083 11.975 36.025C15.2917 39.3417 19.3 41 24 41C25.9333 41 27.7667 40.6917 29.5 40.075C31.2333 39.4583 32.8167 38.6167 34.25 37.55C34.5833 37.95 34.95 38.3167 35.35 38.65C35.75 38.9833 36.1833 39.25 36.65 39.45C34.9167 40.8833 32.975 42 30.825 42.8C28.675 43.6 26.4 44 24 44ZM39 35.95C38.4333 35.95 37.9583 35.7583 37.575 35.375C37.1917 34.9917 37 34.5167 37 33.95C37 33.3833 37.1917 32.9083 37.575 32.525C37.9583 32.1417 38.4333 31.95 39 31.95C39.5667 31.95 40.0417 32.1417 40.425 32.525C40.8083 32.9083 41 33.3833 41 33.95C41 34.5167 40.8083 34.9917 40.425 35.375C40.0417 35.7583 39.5667 35.95 39 35.95ZM31.35 33.65L22.65 24.6V13.35H25.65V23.4L33.6 31.4L31.35 33.65Z" fill="#00A575"/>
</svg>
